<?xml version="1.0" encoding="utf-8"?>
<!-- Generator: Adobe Illustrator 25.1.0, SVG Export Plug-In . SVG Version: 6.00 Build 0)  -->
<svg version="1.1" id="Layer_1" xmlns="http://www.w3.org/2000/svg" xmlns:xlink="http://www.w3.org/1999/xlink" x="0px" y="0px"
	 viewBox="0 0 1134.97 163" style="enable-background:new 0 0 1134.97 163;" xml:space="preserve">
<style type="text/css">
	.st0{fill:none;stroke:#1A1A1A;}
</style>
<g>
	<path class="st0" d="M57.51,162.1c-32.61,0-57.01-12.71-57.01-43.47V44.61c0-31.37,24.61-44.09,57.01-44.09
		c29.12,0,50.45,12.1,50.45,41.01c0,8.82-0.62,15.17-1.64,20.92l-38.14-1.64c0.82-3.69,1.44-7.59,1.44-14.35
		c0-11.69-3.49-15.79-10.87-15.79c-6.97,0-10.05,3.49-10.05,10.66v80.18c0,5.74,2.67,10.46,10.05,10.46
		c6.15,0,10.87-3.28,10.87-16.2c0-5.13-0.82-9.84-1.85-14.35l37.94-1.64c0.82,3.28,2.26,12.3,2.26,20.92
		C107.95,150.2,86.42,162.1,57.51,162.1z"/>
	<path class="st0" d="M234.68,115.14c0,30.35-21.74,46.34-57.01,46.34c-34.86,0-57.42-15.99-57.42-46.34V46.66
		c0-31.58,24.2-46.14,57.42-46.14c33.63,0,57.01,14.15,57.01,46.14V115.14z M186.29,39.89c0-5.95-3.69-9.23-8.82-9.23
		s-9.02,3.28-9.02,9.23v81.61c0,5.74,3.28,9.43,9.23,9.43c5.54,0,8.61-3.69,8.61-9.23L186.29,39.89L186.29,39.89z"/>
	<path class="st0" d="M370.63,159.02h-44.91l-28.3-85.5h-1.03v85.5h-44.91V3.18h47.57L323.66,77h1.03V3.18h45.93L370.63,159.02
		L370.63,159.02z"/>
	<path class="st0" d="M498.58,34.15h-34.45v124.87h-48.39V34.15H381.3V3.18h117.29L498.58,34.15L498.58,34.15z"/>
	<path class="st0" d="M611.57,159.02h-48.8l-3.08-18.46h-25.63l-2.87,18.46h-40.6L525.45,3.18h50.86L611.57,159.02z M554.57,110.01
		l-8-55.37h-0.82l-7.38,55.37H554.57z"/>
	<path class="st0" d="M673.91,162.1c-32.61,0-57.01-12.71-57.01-43.47V44.61c0-31.37,24.61-44.09,57.01-44.09
		c29.12,0,50.45,12.1,50.45,41.01c0,8.82-0.62,15.17-1.64,20.92l-38.14-1.64c0.82-3.69,1.44-7.59,1.44-14.35
		c0-11.69-3.49-15.79-10.87-15.79c-6.97,0-10.05,3.49-10.05,10.66v80.18c0,5.74,2.67,10.46,10.05,10.46
		c6.15,0,10.87-3.28,10.87-16.2c0-5.13-0.82-9.84-1.85-14.35l37.94-1.64c0.82,3.28,2.26,12.3,2.26,20.92
		C724.36,150.2,702.83,162.1,673.91,162.1z"/>
	<path class="st0" d="M847.8,34.15h-34.45v124.87h-48.39V34.15h-34.45V3.18h117.29L847.8,34.15L847.8,34.15z"/>
	<path class="st0" d="M1014.51,118.21c0,25.84-19.48,44.29-55.16,44.29c-36.5,0-56.19-18.25-56.19-44.09V3.18h48.19v118.31
		c0,6.36,3.69,10.05,11.07,10.05c6.36,0,10.05-4.1,10.05-10.25V3.18h42.04V118.21z"/>
	<path class="st0" d="M1134.46,120.47c0,22.97-16.82,41.01-55.37,41.01c-34.86,0-52.09-14.35-52.09-39.99c0-8,0.82-13.53,1.43-17.02
		l38.76,1.64c-0.61,3.08-1.23,8.2-1.23,13.12c0,8,3.69,11.89,10.46,11.89c6.15,0,8.61-4.31,8.61-8.61v-3.08
		c0-8.61-5.33-14.56-27.27-29.94c-20.92-14.76-30.96-27.07-30.96-47.16V40.9c0-20.92,14.97-40.4,53.52-40.4
		c37.53,0,52.5,18.05,52.5,39.99c0,6.77-0.61,12.71-1.02,15.79l-38.55-1.85c0.82-3.69,1.23-7.18,1.23-11.69
		c0-9.43-3.9-12.3-10.46-12.3c-6.15,0-9.02,3.49-9.02,8.82v1.03c0,9.02,5.54,13.74,20.3,23.99c25.43,17.43,39.17,32.61,39.17,53.52
		v2.68H1134.46z"/>
</g>
</svg>
