<svg xmlns="http://www.w3.org/2000/svg" width="11.56" height="400.032" viewBox="0 0 11.56 400.032">
  <defs>
    <style>
      .cls-1 {
        fill: #424242;
        fill-rule: evenodd;
      }
    </style>
  </defs>
  <path id="Vertical_growth_for_tech_businesses" data-name="Vertical growth for tech businesses" class="cls-1" d="M1389.57,255.868v-1.456l-11.2,3.84V259.8l11.2,3.76v-1.328l-9.55-3.04V259.02Zm-11.2,11.551v6.656h1.18v-5.328h3.99V273.6h1.18v-4.848h3.66V274h1.19v-6.576h-11.2Zm0,11.408v1.328h4.93v1.989l-4.93,2.64v1.552l5.31-2.96a3,3,0,0,0,.32.574,3.205,3.205,0,0,0,1.45,1.174,2.91,2.91,0,0,0,1.16.215,3.163,3.163,0,0,0,1.44-.3,2.765,2.765,0,0,0,.96-0.806,3.394,3.394,0,0,0,.53-1.165,6.305,6.305,0,0,0,.16-1.4c0-.436-0.03-0.918-0.07-1.444s-0.1-.993-0.17-1.4h-11.09Zm9.61,4.528a1.854,1.854,0,0,1-1.42.592,2,2,0,0,1-1.7-.72,2.956,2.956,0,0,1-.54-1.824v-1.248h4.13a1.664,1.664,0,0,1,.05.3c0.01,0.123.02,0.253,0.03,0.392s0.01,0.283.01,0.432v0.432A2.274,2.274,0,0,1,1387.98,283.355Zm-1.34,6.032v1.184h1.74v2.3h-8.83v-1.76h-1.18v4.848h1.18V294.2h8.83v2.32h-1.74v1.184h2.93v-8.32h-2.93Zm1.74,11.84V304.4h-8.83v-3.168h-1.18v7.68h1.18v-3.184h8.83v3.184h1.19v-7.68h-1.19Zm-1.74,17.888V320.3h2.53v-0.016a4.636,4.636,0,0,0,.25-0.456,2.454,2.454,0,0,0,.19-0.536,5.723,5.723,0,0,0,.11-0.7,8.712,8.712,0,0,0,.04-0.944,5.443,5.443,0,0,0-.32-1.864,3.847,3.847,0,0,0-1.02-1.528,4.918,4.918,0,0,0-1.79-1.04,8.1,8.1,0,0,0-2.66-.384,8.713,8.713,0,0,0-2.6.344,4.879,4.879,0,0,0-1.8.968,3.9,3.9,0,0,0-1.05,1.48,4.936,4.936,0,0,0-.34,1.864,5.831,5.831,0,0,0,.24,1.792,4.194,4.194,0,0,0,.62,1.216l0.03-.016h2.16v-1.184h-1.6a4.128,4.128,0,0,1-.2-0.666,3.846,3.846,0,0,1-.07-0.779,3.734,3.734,0,0,1,.29-1.484,3.014,3.014,0,0,1,.86-1.14,4.253,4.253,0,0,1,1.44-.738,6.923,6.923,0,0,1,2.02-.265,6.844,6.844,0,0,1,2.16.3,4.045,4.045,0,0,1,1.42.786,2.915,2.915,0,0,1,.79,1.124,3.622,3.622,0,0,1,.24,1.292,4.512,4.512,0,0,1-.06.795,2.693,2.693,0,0,1-.17.6h-1.71Zm-8.27,12.144v1.392l11.2-3.776v-1.568l-11.2-3.744v1.328l3.1,1.018V330.2Zm9.52-3.264v0.192l-5.27,1.648v-3.512Zm-9.52,8.271v7.04h3.97v-1.184h-2.79v-4.528h10.02v-1.328h-11.2Zm8.27,28.592v1.184h2.67l0.07,0.016a5.546,5.546,0,0,0,.28-1.056,9.908,9.908,0,0,0,.1-1.584,4.975,4.975,0,0,0-.32-1.744,3.888,3.888,0,0,0-1.02-1.5,5.074,5.074,0,0,0-1.8-1.056,7.772,7.772,0,0,0-2.65-.4,9.336,9.336,0,0,0-2.59.32,4.888,4.888,0,0,0-1.8.912,3.584,3.584,0,0,0-1.06,1.44,5.055,5.055,0,0,0-.34,1.92,6.29,6.29,0,0,0,.05.856,7.438,7.438,0,0,0,.17.848,5.682,5.682,0,0,0,.27.768,3.906,3.906,0,0,0,.35.616h4.93v-3.456h-1.07v2.32h-3.12a3.525,3.525,0,0,1-.4-1.749,3.007,3.007,0,0,1,1.12-2.528,5.665,5.665,0,0,1,3.49-.875,7.2,7.2,0,0,1,2.17.281,3.96,3.96,0,0,1,1.43.755,2.654,2.654,0,0,1,.77,1.091,3.541,3.541,0,0,1,.24,1.293,6.312,6.312,0,0,1-.12,1.332h-1.82Zm-8.27,6.128v1.328h4.93V374.3l-4.93,2.64V378.5l5.31-2.96a3,3,0,0,0,.32.574,3.205,3.205,0,0,0,1.45,1.174,2.91,2.91,0,0,0,1.16.215,3.163,3.163,0,0,0,1.44-.3,2.765,2.765,0,0,0,.96-0.806,3.394,3.394,0,0,0,.53-1.165,6.305,6.305,0,0,0,.16-1.4c0-.436-0.03-0.918-0.07-1.444s-0.1-.993-0.17-1.4h-11.09Zm9.61,4.528a1.854,1.854,0,0,1-1.42.592,2,2,0,0,1-1.7-.72,2.956,2.956,0,0,1-.54-1.824v-1.248h4.13a1.664,1.664,0,0,1,.05.3c0.01,0.123.02,0.253,0.03,0.392s0.01,0.283.01,0.432v0.432A2.274,2.274,0,0,1,1387.98,375.514Zm-6.39,6.367a5.233,5.233,0,0,0-1.82.687,3.339,3.339,0,0,0-1.18,1.246,3.838,3.838,0,0,0-.41,1.868,3.4,3.4,0,0,0,1.5,3.058,7.835,7.835,0,0,0,4.29.982,12.378,12.378,0,0,0,2.37-.208,5.345,5.345,0,0,0,1.83-.686,3.3,3.3,0,0,0,1.17-1.254,3.922,3.922,0,0,0,.42-1.892,3.362,3.362,0,0,0-1.5-3.026,7.873,7.873,0,0,0-4.29-.982A12.5,12.5,0,0,0,1381.59,381.881Zm5.86,1.811a2.332,2.332,0,0,1,.75,3.274,2.657,2.657,0,0,1-1.01.818,4.988,4.988,0,0,1-1.47.425,12.185,12.185,0,0,1-1.75.121,7.37,7.37,0,0,1-3.49-.634,2.141,2.141,0,0,1-1.12-2.014,2.048,2.048,0,0,1,.38-1.268,2.7,2.7,0,0,1,1-.8,5.078,5.078,0,0,1,1.47-.425,12.272,12.272,0,0,1,1.76-.12A7.416,7.416,0,0,1,1387.45,383.692Zm2.12,10.238v-1.264l-11.2,1.744v1.344l4.53,1.3,1.1,0.176v0.048l-1.09.16-4.54,1.3v1.328l11.2,1.728V400.6l-7.95-1.184-1.09-.1v-0.08l1.18-.288,4.34-1.1v-1.056l-4.37-1.184-1.14-.224v-0.112l1.04-.08Zm-2.93,10.656v1.184h1.74v2.3h-8.83v-1.76h-1.18v4.848h1.18V409.4h8.83v2.32h-1.74v1.184h2.93v-8.32h-2.93Zm-8.27,18.191v1.328h11.2v-1.328h-4.88v-5.024h4.88v-1.328h-11.2v1.328h5.13v5.024h-5.13Zm0,17.6v1.328h5.01v4.768h1.18v-4.768h3.82v5.088h1.19v-6.416h-11.2ZM1381.59,451a5.212,5.212,0,0,0-1.82.686,3.346,3.346,0,0,0-1.18,1.246,3.841,3.841,0,0,0-.41,1.868,3.4,3.4,0,0,0,1.5,3.058,7.827,7.827,0,0,0,4.29.982,12.378,12.378,0,0,0,2.37-.208,5.345,5.345,0,0,0,1.83-.686,3.3,3.3,0,0,0,1.17-1.254,3.922,3.922,0,0,0,.42-1.892,3.363,3.363,0,0,0-1.5-3.026,7.873,7.873,0,0,0-4.29-.982A12.411,12.411,0,0,0,1381.59,451Zm5.86,1.81a2.332,2.332,0,0,1,.75,3.274,2.657,2.657,0,0,1-1.01.818,4.987,4.987,0,0,1-1.47.426,12.334,12.334,0,0,1-1.75.12,7.358,7.358,0,0,1-3.49-.634,2.14,2.14,0,0,1-1.12-2.014,2.05,2.05,0,0,1,.38-1.268,2.683,2.683,0,0,1,1-.8,5.079,5.079,0,0,1,1.47-.426,12.272,12.272,0,0,1,1.76-.12A7.429,7.429,0,0,1,1387.45,452.811Zm-9.08,10.334v1.328h4.93v1.989l-4.93,2.64v1.552l5.31-2.96a3,3,0,0,0,.32.574,3.2,3.2,0,0,0,1.45,1.173,2.893,2.893,0,0,0,1.16.216,3.163,3.163,0,0,0,1.44-.3,2.776,2.776,0,0,0,.96-0.806,3.4,3.4,0,0,0,.53-1.166,6.3,6.3,0,0,0,.16-1.4c0-.436-0.03-0.918-0.07-1.445s-0.1-.992-0.17-1.4h-11.09Zm9.61,4.528a1.858,1.858,0,0,1-1.42.592,2,2,0,0,1-1.7-.72,2.956,2.956,0,0,1-.54-1.824v-1.248h4.13a1.648,1.648,0,0,1,.05.3c0.01,0.122.02,0.253,0.03,0.392s0.01,0.282.01,0.432v0.432A2.274,2.274,0,0,1,1387.98,467.673Zm-1.34,17.552v1.184h1.74v2.3h-8.83v-1.76h-1.18V491.8h1.18v-1.76h8.83v2.32h-1.74v1.184h2.93v-8.32h-2.93Zm-8.27,12.591v6.656h1.18v-5.328h3.99v4.848h1.18v-4.848h3.66v5.248h1.19v-6.576h-11.2Zm8.27,17.136v1.184h2.53V516.12a4.418,4.418,0,0,0,.25-0.456,2.417,2.417,0,0,0,.19-0.536,5.662,5.662,0,0,0,.11-0.7,8.688,8.688,0,0,0,.04-0.944,5.451,5.451,0,0,0-.32-1.864,3.861,3.861,0,0,0-1.02-1.528,4.932,4.932,0,0,0-1.79-1.04,8.1,8.1,0,0,0-2.66-.384,8.746,8.746,0,0,0-2.6.344,4.893,4.893,0,0,0-1.8.968,3.907,3.907,0,0,0-1.05,1.48,4.94,4.94,0,0,0-.34,1.864,5.826,5.826,0,0,0,.24,1.792,4.181,4.181,0,0,0,.62,1.216l0.03-.016h2.16v-1.184h-1.6a4.068,4.068,0,0,1-.2-0.666,3.836,3.836,0,0,1-.07-0.778,3.739,3.739,0,0,1,.29-1.485,3,3,0,0,1,.86-1.139,4.254,4.254,0,0,1,1.44-.739,6.957,6.957,0,0,1,2.02-.265,6.844,6.844,0,0,1,2.16.3,4.03,4.03,0,0,1,1.42.787,2.908,2.908,0,0,1,.79,1.124,3.618,3.618,0,0,1,.24,1.292,4.5,4.5,0,0,1-.06.794,2.678,2.678,0,0,1-.17.6h-1.71Zm-8.27,11.5v1.328h11.2v-1.328h-4.88v-5.024h4.88V520.1h-11.2v1.328h5.13v5.024h-5.13Zm10,23.721a2.507,2.507,0,0,0,.82-0.87,3.466,3.466,0,0,0,.4-1.173,7.923,7.923,0,0,0,.11-1.269c0-.618-0.03-1.187-0.07-1.708s-0.09-.98-0.16-1.373h-11.02a3.365,3.365,0,0,0-.12.7c-0.03.266-.05,0.532-0.07,0.8s-0.02.522-.02,0.767v0.638a6.063,6.063,0,0,0,.19,1.533,4.352,4.352,0,0,0,.59,1.333,3.063,3.063,0,0,0,1.04.942,2.972,2.972,0,0,0,1.49.359,2.848,2.848,0,0,0,1.14-.208,2.53,2.53,0,0,0,.81-0.542,2.441,2.441,0,0,0,.53-0.775,3.621,3.621,0,0,0,.27-0.918h0.07a2.93,2.93,0,0,0,.41.942,2.73,2.73,0,0,0,.64.654,2.643,2.643,0,0,0,.77.383,2.8,2.8,0,0,0,.82.128A2.467,2.467,0,0,0,1388.37,550.177Zm-8.97-3.8c0.01-.171.01-0.336,0.02-0.5s0.03-.31.04-0.448a1.889,1.889,0,0,1,.04-0.32h4.02V546.5a7.508,7.508,0,0,1-.08,1.056,2.88,2.88,0,0,1-.3.952,1.842,1.842,0,0,1-.63.688,2.146,2.146,0,0,1-1.97.048,1.971,1.971,0,0,1-.64-0.584,2.8,2.8,0,0,1-.38-0.848,3.645,3.645,0,0,1-.13-0.992C1379.39,546.7,1379.39,546.546,1379.4,546.376Zm5.24-1.264h3.81a5.761,5.761,0,0,1,.07.664c0.02,0.293.02,0.616,0.02,0.968a4.3,4.3,0,0,1-.08.88,2.311,2.311,0,0,1-.28.768,1.6,1.6,0,0,1-.56.536,1.784,1.784,0,0,1-.88.2,1.66,1.66,0,0,1-.71-0.152,2.007,2.007,0,0,1-.57-0.416,2.7,2.7,0,0,1-.44-0.6,4.185,4.185,0,0,1-.32-0.72c-0.02-.171-0.03-0.384-0.04-0.64s-0.02-.475-0.02-0.656v-0.832Zm-2.18,15.952a3.868,3.868,0,0,1-2.34-.552,2.211,2.211,0,0,1-.71-1.848,3.793,3.793,0,0,1,.16-1.176,1.8,1.8,0,0,1,.52-0.832,2.31,2.31,0,0,1,.94-0.5,5.262,5.262,0,0,1,1.43-.168h7.11v-1.328h-7.73a3.471,3.471,0,0,0-2.72,1,4.321,4.321,0,0,0-.9,2.978,4.848,4.848,0,0,0,.23,1.517,2.98,2.98,0,0,0,.69,1.166,3.221,3.221,0,0,0,1.21.742,5.173,5.173,0,0,0,1.75.264h7.47v-1.264h-7.11Zm-0.73,6.56V566.44h-2.59l-0.05-.016a5.056,5.056,0,0,0-.27.568,7.906,7.906,0,0,0-.31.816q-0.135.456-.24,1a7.045,7.045,0,0,0-.09,1.152,5.336,5.336,0,0,0,.22,1.608,3.374,3.374,0,0,0,.64,1.2,2.909,2.909,0,0,0,.99.752,3.13,3.13,0,0,0,1.3.264,2.4,2.4,0,0,0,1.47-.44,4.4,4.4,0,0,0,1.02-1.1,8.883,8.883,0,0,0,.74-1.423c0.21-.512.43-0.987,0.65-1.424a4.494,4.494,0,0,1,.74-1.1,1.385,1.385,0,0,1,1.04-.439,1.223,1.223,0,0,1,.61.159,1.534,1.534,0,0,1,.5.457,2.345,2.345,0,0,1,.35.72,3.472,3.472,0,0,1,.13.952,8.225,8.225,0,0,1-.07,1.024,6.835,6.835,0,0,1-.16.88h-1.71v1.184h2.56l0.05,0.016V573.24h0.03l-0.02-.032a4.8,4.8,0,0,0,.36-1.248,10.3,10.3,0,0,0,.14-1.744,5.468,5.468,0,0,0-.2-1.512,3.365,3.365,0,0,0-.57-1.16,2.525,2.525,0,0,0-.89-0.745,2.665,2.665,0,0,0-1.19-.263,2.516,2.516,0,0,0-1.53.44,4,4,0,0,0-1.01,1.1,8.083,8.083,0,0,0-.72,1.424q-0.3.768-.63,1.424a4.22,4.22,0,0,1-.73,1.1,1.421,1.421,0,0,1-1.07.44,1.705,1.705,0,0,1-.84-0.2,1.723,1.723,0,0,1-.58-0.544,2.471,2.471,0,0,1-.34-0.808,4.624,4.624,0,0,1,.07-2.2,5.258,5.258,0,0,1,.42-1.08h1.78Zm6.65,10.079v3.168h-8.83V577.7h-1.18v7.68h1.18V582.2h8.83v3.184h1.19V577.7h-1.19Zm-10.01,18.165v0.875h11.2v-1.264h-6.98l-1.53.179v-0.081l1.53-.828,6.98-4.491v-0.875h-11.2v1.264h7.01l1.61-.162v0.065l-1.61.86Zm0,5.627v6.656h1.18v-5.328h3.99v4.848h1.18v-4.848h3.66v5.248h1.19V601.5h-11.2Zm3.36,12.208v-1.184h-2.59l-0.05-.016a5.056,5.056,0,0,0-.27.568,7.906,7.906,0,0,0-.31.816q-0.135.456-.24,1a7.045,7.045,0,0,0-.09,1.152,5.336,5.336,0,0,0,.22,1.608,3.374,3.374,0,0,0,.64,1.2,2.909,2.909,0,0,0,.99.752,3.114,3.114,0,0,0,1.3.264,2.4,2.4,0,0,0,1.47-.44,4.41,4.41,0,0,0,1.02-1.1,8.936,8.936,0,0,0,.74-1.424c0.21-.512.43-0.987,0.65-1.424a4.468,4.468,0,0,1,.74-1.1,1.383,1.383,0,0,1,1.04-.44,1.214,1.214,0,0,1,.61.16,1.519,1.519,0,0,1,.5.456,2.345,2.345,0,0,1,.35.72,3.477,3.477,0,0,1,.13.952,8.211,8.211,0,0,1-.07,1.024,6.835,6.835,0,0,1-.16.88h-1.71v1.184h2.56l0.05,0.016v-0.016h0.03l-0.02-.032a4.8,4.8,0,0,0,.36-1.248,10.3,10.3,0,0,0,.14-1.744,5.468,5.468,0,0,0-.2-1.512,3.365,3.365,0,0,0-.57-1.16,2.512,2.512,0,0,0-.89-0.744,2.652,2.652,0,0,0-1.19-.264,2.516,2.516,0,0,0-1.53.44,4,4,0,0,0-1.01,1.1,8.083,8.083,0,0,0-.72,1.424q-0.3.768-.63,1.424a4.22,4.22,0,0,1-.73,1.1,1.421,1.421,0,0,1-1.07.44,1.705,1.705,0,0,1-.84-0.2,1.723,1.723,0,0,1-.58-0.544,2.471,2.471,0,0,1-.34-0.808,4.625,4.625,0,0,1,.07-2.2,5.281,5.281,0,0,1,.42-1.08h1.78Zm0,11.52v-1.184h-2.59l-0.05-.016a5.056,5.056,0,0,0-.27.568,7.906,7.906,0,0,0-.31.816q-0.135.456-.24,1a7.045,7.045,0,0,0-.09,1.152,5.336,5.336,0,0,0,.22,1.608,3.374,3.374,0,0,0,.64,1.2,2.909,2.909,0,0,0,.99.752,3.114,3.114,0,0,0,1.3.264,2.4,2.4,0,0,0,1.47-.44,4.41,4.41,0,0,0,1.02-1.1,8.936,8.936,0,0,0,.74-1.424c0.21-.512.43-0.987,0.65-1.424a4.468,4.468,0,0,1,.74-1.1,1.383,1.383,0,0,1,1.04-.44,1.214,1.214,0,0,1,.61.16,1.519,1.519,0,0,1,.5.456,2.345,2.345,0,0,1,.35.72,3.477,3.477,0,0,1,.13.952,8.211,8.211,0,0,1-.07,1.024,6.835,6.835,0,0,1-.16.88h-1.71v1.184h2.56l0.05,0.016v-0.016h0.03l-0.02-.032a4.8,4.8,0,0,0,.36-1.248,10.3,10.3,0,0,0,.14-1.744,5.468,5.468,0,0,0-.2-1.512,3.365,3.365,0,0,0-.57-1.16,2.512,2.512,0,0,0-.89-0.744,2.652,2.652,0,0,0-1.19-.264,2.516,2.516,0,0,0-1.53.44,4,4,0,0,0-1.01,1.1,8.083,8.083,0,0,0-.72,1.424q-0.3.768-.63,1.424a4.22,4.22,0,0,1-.73,1.1,1.421,1.421,0,0,1-1.07.44,1.705,1.705,0,0,1-.84-0.2,1.723,1.723,0,0,1-.58-0.544,2.471,2.471,0,0,1-.34-0.808,4.625,4.625,0,0,1,.07-2.2,5.281,5.281,0,0,1,.42-1.08h1.78Zm-3.36,10.832v6.656h1.18v-5.328h3.99v4.848h1.18v-4.848h3.66v5.248h1.19v-6.576h-11.2Zm3.36,12.207v-1.184h-2.59l-0.05-.016a5.233,5.233,0,0,0-.27.568,7.841,7.841,0,0,0-.31.817q-0.135.454-.24,1a7.041,7.041,0,0,0-.09,1.151,5.327,5.327,0,0,0,.22,1.608,3.357,3.357,0,0,0,.64,1.2,2.9,2.9,0,0,0,.99.752,3.114,3.114,0,0,0,1.3.264,2.393,2.393,0,0,0,1.47-.44,4.375,4.375,0,0,0,1.02-1.1,8.894,8.894,0,0,0,.74-1.424c0.21-.511.43-0.986,0.65-1.424a4.507,4.507,0,0,1,.74-1.1,1.385,1.385,0,0,1,1.04-.439,1.223,1.223,0,0,1,.61.159,1.541,1.541,0,0,1,.5.456,2.362,2.362,0,0,1,.35.721,3.47,3.47,0,0,1,.13.951,8.2,8.2,0,0,1-.07,1.024,6.8,6.8,0,0,1-.16.88h-1.71v1.184h2.56l0.05,0.017v-0.017h0.03l-0.02-.032a4.773,4.773,0,0,0,.36-1.248,10.287,10.287,0,0,0,.14-1.744,5.479,5.479,0,0,0-.2-1.512,3.383,3.383,0,0,0-.57-1.16,2.522,2.522,0,0,0-.89-0.744,2.652,2.652,0,0,0-1.19-.264,2.516,2.516,0,0,0-1.53.441,4.015,4.015,0,0,0-1.01,1.1,8.118,8.118,0,0,0-.72,1.424q-0.3.768-.63,1.425a4.2,4.2,0,0,1-.73,1.1,1.418,1.418,0,0,1-1.07.44,1.608,1.608,0,0,1-1.42-.744,2.452,2.452,0,0,1-.34-0.808,4.491,4.491,0,0,1-.1-0.992,4.545,4.545,0,0,1,.17-1.208,5.281,5.281,0,0,1,.42-1.08h1.78Z" transform="translate(-1378.19 -254.406)"/>
</svg>
