<svg xmlns="http://www.w3.org/2000/svg" width="1069.779" height="162.15" viewBox="0 0 1069.779 162.15">
  <defs>
    <style>
      .cls-1 {
        fill: none;
        stroke: #1a1a1a;
        stroke-width: 1px;
        fill-rule: evenodd;
      }
    </style>
  </defs>
  <path id="your_team" data-name="your team" class="cls-1" d="M260.435,1443.06l-14.891,61.19h-1.02l-13.056-61.19h-51.2l37.535,94.85v60.18h48.143v-59.97l37.739-95.06H260.435ZM421.8,1486.3c0-31.82-23.255-45.9-56.71-45.9-33.047,0-57.119,14.49-57.119,45.9v68.14c0,30.19,22.44,46.1,57.119,46.1,35.087,0,56.71-15.91,56.71-46.1V1486.3Zm-48.142,74.66c0,5.51-3.06,9.18-8.568,9.18-5.916,0-9.18-3.67-9.18-9.38v-81.19c0-5.92,3.876-9.18,8.976-9.18s8.772,3.26,8.772,9.18v81.39Zm174.416-117.9H506.253v117.5c0,6.12-3.672,10.2-10,10.2-7.344,0-11.016-3.68-11.016-10v-117.7H437.3V1557.7c0,25.7,19.584,43.86,55.895,43.86,35.5,0,54.874-18.36,54.874-44.06V1443.06Zm132.189,155.03c-3.468-8.57-4.9-15.3-4.9-29.17V1557.7c0-20.19-5.915-31.82-24.275-33.86v-0.41c17.952-5.51,27.131-16.32,27.131-39.58,0-26.11-16.319-40.79-48.142-40.79H565.616v155.03h47.735v-57.93h2.856c7.344,0,11.424,2.65,12.444,19.17l1.224,27.54a29.193,29.193,0,0,0,2.652,11.22h47.734ZM631.1,1489.57c0,16.52-4.284,19.38-12.444,19.38h-5.3v-35.3h5.916C625.795,1473.65,631.1,1476.71,631.1,1489.57Zm217.256-46.51H731.67v30.8h34.271v124.23h48.143V1473.86h34.271v-30.8Zm104.652,124.02H906.7v-34.27H945.46V1501.6H906.7v-27.95h45.49v-30.59H858.966v155.03h94.041v-31.01Zm91.183-124.02H993.6l-34.679,155.03h40.391l2.855-18.36h25.5l3.06,18.36h48.55Zm-37.74,106.28,7.35-55.08h0.81l7.96,55.08h-16.12Zm242.35-106.28h-59.16l-21.42,103.42h-1.02l-20.4-103.42h-57.11v155.03h42.43v-89.76h1.02l18.36,89.76h31l17.34-89.76h1.02v89.76h47.94V1443.06Z" transform="translate(-179.531 -1439.91)"/>
</svg>
