<svg xmlns="http://www.w3.org/2000/svg" width="1182.44" height="161.124" viewBox="0 0 1182.44 161.124">
  <defs>
    <style>
      .cls-1 {
        fill-opacity: 0;
        stroke: #1a1a1a;
        stroke-width: 1px;
        fill-rule: evenodd;
      }
    </style>
  </defs>
  <path id="Who_we_are" data-name="Who we are" class="cls-1" d="M268.479,943.056l-9.792,86.694h-1.02l-11.22-86.694H208.1l-11.423,86.494h-1.02l-9.792-86.494H137.106l31.211,155.034H213.2l12.444-83.02h1.02l12.851,83.02h45.9l32.231-155.034H268.479Zm175.438,0H395.978v61.194h-20.2V943.056H328.048V1098.09h47.734v-62.62h20.2v62.62h47.939V943.056ZM574.474,986.3c0-31.824-23.255-45.9-56.71-45.9-33.047,0-57.119,14.483-57.119,45.9v68.137c0,30.19,22.44,46.1,57.119,46.1,35.087,0,56.71-15.91,56.71-46.1V986.3Zm-48.142,74.657c0,5.51-3.06,9.18-8.568,9.18-5.916,0-9.18-3.67-9.18-9.38V979.571c0-5.916,3.876-9.18,8.976-9.18s8.772,3.264,8.772,9.18v81.389Zm233.576-117.9-9.792,86.694H749.1l-11.22-86.694H699.525L688.1,1029.55h-1.02l-9.792-86.494H628.535l31.211,155.034h44.879l12.444-83.02h1.02l12.851,83.02h45.9L809.07,943.056H759.908Zm153.61,124.024H867.211v-34.27H905.97V1001.6H867.211V973.655H912.7v-30.6H819.477V1098.09h94.041v-31.01ZM1050.4,943.056H999.81L965.131,1098.09h40.389l2.86-18.36h25.5l3.06,18.36h48.55Zm-37.74,106.284,7.35-55.082h0.81l7.96,55.082h-16.12Zm197.88,48.75c-3.47-8.57-4.9-15.3-4.9-29.17V1057.7c0-20.19-5.91-31.82-24.27-33.86v-0.41c17.95-5.51,27.13-16.32,27.13-39.575,0-26.112-16.32-40.8-48.15-40.8h-64.46V1098.09h47.74v-57.93h2.85c7.35,0,11.43,2.65,12.45,19.17l1.22,27.54a29.156,29.156,0,0,0,2.65,11.22h47.74Zm-49.17-108.523c0,16.523-4.28,19.383-12.44,19.383h-5.3v-35.3h5.91C1156.07,973.655,1161.37,976.715,1161.37,989.567Zm157.08,77.513h-46.3v-34.27h38.75V1001.6h-38.75V973.655h45.49v-30.6h-93.23V1098.09h94.04v-31.01Z" transform="translate(-136.5 -939.906)"/>
</svg>
